<?xml version="1.0" encoding="iso-8859-1"?>
<!-- Generator: Adobe Illustrator 20.0.0, SVG Export Plug-In . SVG Version: 6.00 Build 0)  -->
<svg version="1.1" id="Layer_1_1_" xmlns="http://www.w3.org/2000/svg" xmlns:xlink="http://www.w3.org/1999/xlink" x="0px" y="0px"
	 viewBox="0 0 64 64" style="enable-background:new 0 0 64 64;" xml:space="preserve">
<g id="Guide">
	<g>
	</g>
	<g>
	</g>
	<g>
	</g>
	<g>
	</g>
	<g>
	</g>
	<g>
	</g>
	<g>
	</g>
	<g>
	</g>
	<g>
	</g>
	<g>
	</g>
	<g>
	</g>
	<g>
	</g>
	<g>
	</g>
	<g>
	</g>
	<g>
	</g>
	<g>
	</g>
	<g>
	</g>
	<g>
	</g>
	<g>
	</g>
	<g>
	</g>
	<g>
	</g>
	<g>
	</g>
	<g>
	</g>
	<g>
	</g>
	<g>
	</g>
	<g>
	</g>
	<g>
	</g>
	<g>
	</g>
	<g>
	</g>
	<g>
	</g>
	<g>
	</g>
	<g>
	</g>
	<g>
	</g>
	<g>
	</g>
	<g>
	</g>
	<g>
	</g>
</g>
<rect x="4" y="42" width="11" height="2"/>
<rect x="4" y="46" width="11" height="2"/>
<rect x="4" y="50" width="11" height="2"/>
<rect x="4" y="54" width="11" height="2"/>
<rect x="4" y="58" width="11" height="2"/>
<rect x="49" y="42" width="11" height="2"/>
<rect x="49" y="46" width="11" height="2"/>
<rect x="49" y="50" width="11" height="2"/>
<rect x="49" y="54" width="11" height="2"/>
<rect x="49" y="58" width="11" height="2"/>
<path d="M63.532,17.175l0.01-0.015c-19.16-12.363-43.924-12.363-63.084,0l0.01,0.015C0.193,17.353,0,17.648,0,18v19v26
	c0,0.553,0.447,1,1,1h17h7h14h7h17c0.553,0,1-0.447,1-1V37V18C64,17.648,63.807,17.353,63.532,17.175z M17,31v-4h30v4h-1H18H17z
	 M47,33h1c0.553,0,1-0.447,1-1v-6c0-0.553-0.447-1-1-1H16c-0.553,0-1,0.447-1,1v6c0,0.553,0.447,1,1,1h1v3H2V19h60v17H47V33z
	 M59.381,17H4.619C21.599,7.526,42.401,7.526,59.381,17z M2,38h15v24H2V38z M19,37v-4h26v4v25h-5V49h1c0.553,0,1-0.447,1-1v-4
	c0-0.553-0.447-1-1-1H23c-0.553,0-1,0.447-1,1v4c0,0.553,0.447,1,1,1h1v13h-5V37z M24,47v-2h16v2h-1H25H24z M26,62V49h12v13H26z
	 M62,62H47V38h15V62z"/>
<rect x="59" y="21" width="2" height="2"/>
<rect x="55" y="21" width="2" height="2"/>
<rect x="51" y="21" width="2" height="2"/>
<rect x="47" y="21" width="2" height="2"/>
<rect x="43" y="21" width="2" height="2"/>
<rect x="39" y="21" width="2" height="2"/>
<rect x="35" y="21" width="2" height="2"/>
<rect x="31" y="21" width="2" height="2"/>
<rect x="27" y="21" width="2" height="2"/>
<rect x="23" y="21" width="2" height="2"/>
<rect x="19" y="21" width="2" height="2"/>
<rect x="15" y="21" width="2" height="2"/>
<rect x="11" y="21" width="2" height="2"/>
<rect x="7" y="21" width="2" height="2"/>
<rect x="3" y="21" width="2" height="2"/>
</svg>
